<mxfile host="app.diagrams.net" modified="2024-07-26T01:37:44.935Z" agent="Mozilla/5.0 (Windows NT 10.0; Win64; x64) AppleWebKit/537.36 (KHTML, like Gecko) Chrome/127.0.0.0 Safari/537.36" etag="ap03WXF8Um_PJisFEkQR" version="24.6.2" type="github">
  <diagram name="Page-1" id="wlt29CJvtXZfvoS2OQX4">
    <mxGraphModel dx="1434" dy="738" grid="1" gridSize="10" guides="1" tooltips="1" connect="1" arrows="1" fold="1" page="1" pageScale="1" pageWidth="850" pageHeight="1100" math="0" shadow="0">
      <root>
        <mxCell id="0" />
        <mxCell id="1" parent="0" />
        <mxCell id="pW67mqAoqXdST9CGZowI-9" value="Power On" style="strokeWidth=2;html=1;shape=mxgraph.flowchart.terminator;whiteSpace=wrap;" vertex="1" parent="1">
          <mxGeometry x="527.5" y="230" width="85" height="40" as="geometry" />
        </mxCell>
        <mxCell id="pW67mqAoqXdST9CGZowI-10" value="Power Off" style="strokeWidth=2;html=1;shape=mxgraph.flowchart.terminator;whiteSpace=wrap;" vertex="1" parent="1">
          <mxGeometry x="527.5" y="1080" width="85" height="40" as="geometry" />
        </mxCell>
        <mxCell id="pW67mqAoqXdST9CGZowI-11" value="Instantiate object&amp;nbsp;&lt;span style=&quot;background-color: rgb(255, 255, 255); color: rgb(78, 91, 97); font-family: Consolas, &amp;quot;Courier New&amp;quot;, monospace; font-size: 14px; white-space: pre;&quot;&gt;Zumo32U4Motors&lt;/span&gt;&lt;span style=&quot;background-color: initial;&quot;&gt;&amp;nbsp;&lt;/span&gt;" style="rounded=1;whiteSpace=wrap;html=1;" vertex="1" parent="1">
          <mxGeometry x="452.5" y="380" width="235" height="40" as="geometry" />
        </mxCell>
        <mxCell id="pW67mqAoqXdST9CGZowI-12" value="Instantiate object&amp;nbsp;&lt;span style=&quot;background-color: rgb(255, 255, 255); color: rgb(78, 91, 97); font-family: Consolas, &amp;quot;Courier New&amp;quot;, monospace; font-size: 14px; white-space: pre;&quot;&gt;Zumo32U4ButtonA&lt;/span&gt;&lt;span style=&quot;background-color: initial;&quot;&gt;&amp;nbsp;&lt;/span&gt;" style="rounded=1;whiteSpace=wrap;html=1;" vertex="1" parent="1">
          <mxGeometry x="452.5" y="430" width="235" height="40" as="geometry" />
        </mxCell>
        <mxCell id="pW67mqAoqXdST9CGZowI-13" value="Import library&amp;nbsp;&lt;span style=&quot;color: rgb(0, 92, 95); background-color: rgb(255, 255, 255); font-family: Consolas, &amp;quot;Courier New&amp;quot;, monospace; font-size: 14px; white-space: pre;&quot;&gt;Wire.h&lt;/span&gt;&lt;span style=&quot;background-color: initial;&quot;&gt;&amp;nbsp;&lt;/span&gt;" style="rounded=1;whiteSpace=wrap;html=1;" vertex="1" parent="1">
          <mxGeometry x="452.5" y="280" width="235" height="40" as="geometry" />
        </mxCell>
        <mxCell id="pW67mqAoqXdST9CGZowI-14" value="Import library&amp;nbsp;&lt;span style=&quot;color: rgb(0, 92, 95); background-color: rgb(255, 255, 255); font-family: Consolas, &amp;quot;Courier New&amp;quot;, monospace; font-size: 14px; white-space: pre;&quot;&gt;Zumo32U4.h&lt;/span&gt;&lt;span style=&quot;background-color: initial;&quot;&gt;&amp;nbsp;&lt;/span&gt;" style="rounded=1;whiteSpace=wrap;html=1;" vertex="1" parent="1">
          <mxGeometry x="452.5" y="330" width="235" height="40" as="geometry" />
        </mxCell>
        <mxCell id="pW67mqAoqXdST9CGZowI-15" value="" style="shape=process;whiteSpace=wrap;html=1;backgroundOutline=1;" vertex="1" parent="1">
          <mxGeometry x="180" y="480" width="780" height="110" as="geometry" />
        </mxCell>
        <mxCell id="pW67mqAoqXdST9CGZowI-20" value="Wait for press&amp;nbsp;&lt;span style=&quot;background-color: rgb(255, 255, 255); color: rgb(78, 91, 97); font-family: Consolas, &amp;quot;Courier New&amp;quot;, monospace; font-size: 14px; white-space: pre;&quot;&gt;ButtonA&lt;/span&gt;&lt;span style=&quot;background-color: initial;&quot;&gt;&amp;nbsp;&lt;/span&gt;" style="rounded=1;whiteSpace=wrap;html=1;" vertex="1" parent="1">
          <mxGeometry x="308" y="490" width="235" height="40" as="geometry" />
        </mxCell>
        <mxCell id="pW67mqAoqXdST9CGZowI-21" value="&amp;nbsp;Delay 1 second" style="strokeWidth=2;html=1;shape=mxgraph.flowchart.delay;whiteSpace=wrap;" vertex="1" parent="1">
          <mxGeometry x="362.25" y="540" width="125" height="40" as="geometry" />
        </mxCell>
        <mxCell id="pW67mqAoqXdST9CGZowI-22" value="&lt;font style=&quot;font-size: 26px;&quot;&gt;void loop()&lt;/font&gt;" style="text;strokeColor=none;align=right;fillColor=none;html=1;verticalAlign=middle;whiteSpace=wrap;rounded=0;" vertex="1" parent="1">
          <mxGeometry x="10" y="610" width="160" height="30" as="geometry" />
        </mxCell>
        <mxCell id="pW67mqAoqXdST9CGZowI-24" value="" style="shape=process;whiteSpace=wrap;html=1;backgroundOutline=1;" vertex="1" parent="1">
          <mxGeometry x="180" y="610" width="780" height="460" as="geometry" />
        </mxCell>
        <mxCell id="pW67mqAoqXdST9CGZowI-25" value="&lt;font style=&quot;font-size: 26px;&quot;&gt;void setup()&lt;/font&gt;" style="text;strokeColor=none;align=right;fillColor=none;html=1;verticalAlign=middle;whiteSpace=wrap;rounded=0;" vertex="1" parent="1">
          <mxGeometry x="5" y="480" width="170" height="30" as="geometry" />
        </mxCell>
        <mxCell id="pW67mqAoqXdST9CGZowI-26" value="speed = 0" style="rounded=1;whiteSpace=wrap;html=1;" vertex="1" parent="1">
          <mxGeometry x="304.93" y="640" width="155.07" height="40" as="geometry" />
        </mxCell>
        <mxCell id="pW67mqAoqXdST9CGZowI-27" value="if speed &amp;lt;= 400" style="strokeWidth=2;html=1;shape=mxgraph.flowchart.decision;whiteSpace=wrap;" vertex="1" parent="1">
          <mxGeometry x="311.68" y="690" width="148.32" height="100" as="geometry" />
        </mxCell>
        <mxCell id="pW67mqAoqXdST9CGZowI-28" value="speed = speed + 1" style="rounded=1;whiteSpace=wrap;html=1;" vertex="1" parent="1">
          <mxGeometry x="304.56" y="800" width="155.44" height="40" as="geometry" />
        </mxCell>
        <mxCell id="pW67mqAoqXdST9CGZowI-29" value="Left Motor Speed = speed" style="rounded=1;whiteSpace=wrap;html=1;" vertex="1" parent="1">
          <mxGeometry x="303.81" y="850" width="156.19" height="40" as="geometry" />
        </mxCell>
        <mxCell id="pW67mqAoqXdST9CGZowI-31" value="Right Motor Speed = speed" style="rounded=1;whiteSpace=wrap;html=1;" vertex="1" parent="1">
          <mxGeometry x="303.81" y="900" width="156.19" height="40" as="geometry" />
        </mxCell>
        <mxCell id="pW67mqAoqXdST9CGZowI-33" value="speed = 400" style="rounded=1;whiteSpace=wrap;html=1;" vertex="1" parent="1">
          <mxGeometry x="511.12" y="720" width="150.88" height="40" as="geometry" />
        </mxCell>
        <mxCell id="pW67mqAoqXdST9CGZowI-34" value="if speed &amp;gt;= 0" style="strokeWidth=2;html=1;shape=mxgraph.flowchart.decision;whiteSpace=wrap;" vertex="1" parent="1">
          <mxGeometry x="517.87" y="770" width="144.13" height="100" as="geometry" />
        </mxCell>
        <mxCell id="pW67mqAoqXdST9CGZowI-35" value="speed = speed - 1" style="rounded=1;whiteSpace=wrap;html=1;" vertex="1" parent="1">
          <mxGeometry x="510.75" y="880" width="151.25" height="40" as="geometry" />
        </mxCell>
        <mxCell id="pW67mqAoqXdST9CGZowI-36" value="Left Motor Speed = speed" style="rounded=1;whiteSpace=wrap;html=1;" vertex="1" parent="1">
          <mxGeometry x="510" y="930" width="152" height="40" as="geometry" />
        </mxCell>
        <mxCell id="pW67mqAoqXdST9CGZowI-37" value="Right Motor Speed = speed" style="rounded=1;whiteSpace=wrap;html=1;" vertex="1" parent="1">
          <mxGeometry x="510" y="980" width="152" height="40" as="geometry" />
        </mxCell>
        <mxCell id="pW67mqAoqXdST9CGZowI-39" value="&amp;nbsp;Delay 1 second" style="strokeWidth=2;html=1;shape=mxgraph.flowchart.delay;whiteSpace=wrap;" vertex="1" parent="1">
          <mxGeometry x="710" y="800" width="125" height="40" as="geometry" />
        </mxCell>
        <mxCell id="pW67mqAoqXdST9CGZowI-42" value="" style="endArrow=classic;html=1;rounded=0;entryX=0;entryY=0.5;entryDx=0;entryDy=0;entryPerimeter=0;exitX=0.5;exitY=1;exitDx=0;exitDy=0;" edge="1" parent="1" source="pW67mqAoqXdST9CGZowI-37" target="pW67mqAoqXdST9CGZowI-34">
          <mxGeometry width="50" height="50" relative="1" as="geometry">
            <mxPoint x="520" y="900" as="sourcePoint" />
            <mxPoint x="570" y="850" as="targetPoint" />
            <Array as="points">
              <mxPoint x="586" y="1050" />
              <mxPoint x="480" y="1050" />
              <mxPoint x="480" y="820" />
            </Array>
          </mxGeometry>
        </mxCell>
        <mxCell id="pW67mqAoqXdST9CGZowI-43" value="" style="endArrow=classic;html=1;rounded=0;exitX=1;exitY=0.5;exitDx=0;exitDy=0;exitPerimeter=0;entryX=0;entryY=0.5;entryDx=0;entryDy=0;" edge="1" parent="1" source="pW67mqAoqXdST9CGZowI-27" target="pW67mqAoqXdST9CGZowI-33">
          <mxGeometry width="50" height="50" relative="1" as="geometry">
            <mxPoint x="520" y="900" as="sourcePoint" />
            <mxPoint x="570" y="850" as="targetPoint" />
          </mxGeometry>
        </mxCell>
        <mxCell id="pW67mqAoqXdST9CGZowI-47" value="True" style="edgeLabel;html=1;align=center;verticalAlign=middle;resizable=0;points=[];" vertex="1" connectable="0" parent="pW67mqAoqXdST9CGZowI-43">
          <mxGeometry x="-0.1393" y="-1" relative="1" as="geometry">
            <mxPoint as="offset" />
          </mxGeometry>
        </mxCell>
        <mxCell id="pW67mqAoqXdST9CGZowI-44" value="" style="endArrow=classic;html=1;rounded=0;exitX=1;exitY=0.5;exitDx=0;exitDy=0;exitPerimeter=0;entryX=0;entryY=0.5;entryDx=0;entryDy=0;" edge="1" parent="1">
          <mxGeometry width="50" height="50" relative="1" as="geometry">
            <mxPoint x="659" y="819.5" as="sourcePoint" />
            <mxPoint x="710" y="819.5" as="targetPoint" />
          </mxGeometry>
        </mxCell>
        <mxCell id="pW67mqAoqXdST9CGZowI-48" value="True" style="edgeLabel;html=1;align=center;verticalAlign=middle;resizable=0;points=[];" vertex="1" connectable="0" parent="pW67mqAoqXdST9CGZowI-44">
          <mxGeometry x="-0.1765" y="1" relative="1" as="geometry">
            <mxPoint y="1" as="offset" />
          </mxGeometry>
        </mxCell>
        <mxCell id="pW67mqAoqXdST9CGZowI-45" value="" style="endArrow=classic;html=1;rounded=0;exitX=0.5;exitY=1;exitDx=0;exitDy=0;entryX=0;entryY=0.5;entryDx=0;entryDy=0;entryPerimeter=0;" edge="1" parent="1" source="pW67mqAoqXdST9CGZowI-31" target="pW67mqAoqXdST9CGZowI-27">
          <mxGeometry width="50" height="50" relative="1" as="geometry">
            <mxPoint x="520" y="900" as="sourcePoint" />
            <mxPoint x="570" y="850" as="targetPoint" />
            <Array as="points">
              <mxPoint x="382" y="970" />
              <mxPoint x="280" y="970" />
              <mxPoint x="280" y="740" />
            </Array>
          </mxGeometry>
        </mxCell>
        <mxCell id="pW67mqAoqXdST9CGZowI-46" value="" style="endArrow=classic;html=1;rounded=0;exitX=1;exitY=0.5;exitDx=0;exitDy=0;exitPerimeter=0;entryX=0.5;entryY=0;entryDx=0;entryDy=0;" edge="1" parent="1" source="pW67mqAoqXdST9CGZowI-39" target="pW67mqAoqXdST9CGZowI-26">
          <mxGeometry width="50" height="50" relative="1" as="geometry">
            <mxPoint x="520" y="900" as="sourcePoint" />
            <mxPoint x="570" y="850" as="targetPoint" />
            <Array as="points">
              <mxPoint x="860" y="820" />
              <mxPoint x="860" y="620" />
              <mxPoint x="382" y="620" />
            </Array>
          </mxGeometry>
        </mxCell>
      </root>
    </mxGraphModel>
  </diagram>
</mxfile>
